<svg xmlns="http://www.w3.org/2000/svg" width="32" height="32">
  <linearGradient id="a">
    <stop offset="0" stop-color="#00407f"/>
    <stop offset="1" stop-color="#21d2dc"/>
  </linearGradient>
  <path d="M15.5 31.5v-5.9c-.8-.2-1.4-1-1.4-1.8 0-.2 0-.3.1-.5l-3.6-2.1c-.7.7-1.9.7-2.6 0l-3.6 2.1c0 .1.1.3.1.5 0 1-.8 1.9-1.9 1.9S.7 24.9.7 23.8c0-1 .8-1.9 1.9-1.9.5 0 1 .2 1.3.5l3.6-2.1c0-.1-.1-.3-.1-.5 0-.8.6-1.6 1.4-1.8v-4.1c-.8-.2-1.4-1-1.4-1.8 0-.2 0-.3.1-.5l-3.8-2c-.7.7-1.9.7-2.6-.1-.7-.7-.7-1.9.1-2.6s1.9-.7 2.6.1c.3.3.5.8.5 1.3 0 .2 0 .3-.1.5l3.6 2.1c.7-.7 1.9-.7 2.6 0L14 8.8c0-.1-.1-.3-.1-.5 0-.8.6-1.6 1.4-1.8v-6c.2-.3.4-.5.7-.5.3 0 .5.2.5.5v5.9c.8.2 1.4 1 1.4 1.8 0 .2 0 .3-.1.5l3.6 2.1c.7-.7 1.9-.7 2.6 0l3.6-2.1c0-.1-.1-.3-.1-.5a1.9 1.9 0 1 1 1.9 1.9c-.5 0-1-.2-1.3-.5l-3.6 2.1c0 .1.1.3.1.5 0 .8-.6 1.6-1.4 1.8v4.1c.8.2 1.4 1 1.4 1.8 0 .2 0 .3-.1.5l3.6 2.1c.7-.7 1.9-.7 2.6.1s.7 1.9-.1 2.6-1.9.7-2.6-.1c-.3-.3-.5-.8-.5-1.3 0-.2 0-.3.1-.5L24 21.2c-.7.7-1.9.7-2.6 0l-3.6 2.1c0 .1.1.3.1.5 0 .8-.6 1.6-1.4 1.8v5.9c0 .3-.3.5-.5.5-.3 0-.5-.2-.5-.5zm13.2-7.8c0 .5.4.9.9.9s.9-.4.9-.9-.4-.9-.9-.9c-.5.1-.9.5-.9.9zm-13.6 0c0 .5.4.9.9.9s.9-.4.9-.9-.4-.9-.9-.9c-.5.1-.9.5-.9.9zm-13.5 0c0 .5.4.9.9.9s.9-.4.9-.9-.4-.9-.9-.9c-.5.1-.9.5-.9.9zm15.7-1.3l3.6-2.1c0-.1-.1-.3-.1-.5 0-.8.6-1.6 1.4-1.8v-4.1c-.8-.2-1.4-1-1.4-1.8 0-.2 0-.3.1-.5l-3.6-2.1c-.7.7-1.9.7-2.6 0L11 11.7c0 .1.1.3.1.5 0 .8-.6 1.6-1.4 1.8v4.1c.8.2 1.4 1 1.4 1.8 0 .2 0 .3-.1.5l3.6 2.1c.8-.8 2-.8 2.7-.1zm4.6-2.5c0 .5.4.9.9.9s.9-.4.9-.9-.4-.9-.9-.9-.9.4-.9.9zm-13.5 0c0 .5.4.9.9.9s.9-.4.9-.9-.5-.9-1-.9-.8.4-.8.9zm13.5-7.8c0 .5.4.9.9.9s.9-.4.9-.9-.4-.9-.9-.9c-.5.1-.9.5-.9.9zm-13.5 0c0 .5.4.9.9.9s.9-.4.9-.9-.4-.9-.9-.9c-.6.1-.9.5-.9.9zm20.3-3.8c0 .5.4.9.9.9s.9-.4.9-.9-.4-.9-.9-.9-.9.4-.9.9zm-13.6 0c0 .5.4.9.9.9s.9-.4.9-.9-.4-.9-.9-.9-.9.4-.9.9zm-13.5 0c0 .5.4.9.9.9s.9-.4.9-.9-.4-.9-.9-.9-.9.4-.9.9zm15.3 12.6c-.1-.2-.1-.6.2-.7l2-1.1c.2-.1.6-.1.7.2.1.2.1.6-.2.7l-2 1.1c-.2.1-.6 0-.7-.2zm-6.1-3.8v-2.3c0-.3.3-.5.5-.5.3 0 .5.2.5.5v2.3c0 .3-.3.5-.5.5-.3 0-.5-.2-.5-.5zm8.3-4.1l-2-1.1c-.2-.1-.3-.4-.2-.7.1-.2.5-.3.7-.2l2 1.1c.2.1.3.4.2.7-.1.2-.4.3-.7.2z" fill="url(#a)"/>
</svg>
