<svg xmlns="http://www.w3.org/2000/svg" width="32" height="32">
  <linearGradient id="a">
    <stop offset="0" stop-color="#00407f"/>
    <stop offset="1" stop-color="#21d2dc"/>
  </linearGradient>
  <path d="M3.5 32c-.2 0-.3-.1-.4-.2-.1-.2-.1-.4-.1-.5l1.6-3.6c.6-1.3 2-2.1 3.4-2.2h13.5v-3.3H10.4v1H20c.3 0 .5.2.5.5s-.2.5-.5.5H9.8c-.3 0-.5-.2-.5-.5v-2c0-.3.2-.5.5-.5h11.8v-6.4l-2-1.1c-.2-.1-.3-.4-.2-.7.1-.2.5-.3.7-.2l2.3 1.3c.2.1.3.3.3.4v11.1h1.6c.3 0 .5.2.5.5s-.2.5-.5.5H8.1c-1 .1-2 .7-2.4 1.6L4.3 31h21.5v-6.8c-1.4-.3-2.4-1.7-2.1-3.1.3-1.4 1.7-2.3 3.1-2 1.4.3 2.4 1.7 2.1 3.1-.2 1-1 1.8-2.1 2v7.3c0 .3-.2.5-.5.5H3.5zm21.2-10.4c0 .9.7 1.6 1.6 1.6.9 0 1.6-.7 1.6-1.6s-.7-1.6-1.6-1.6c-.8.1-1.5.8-1.6 1.6zm-9.5-1.7c-.3 0-.5-.2-.5-.5v-2.3h-1v2.3c0 .3-.2.5-.5.5H11c-.3 0-.5-.2-.5-.5v-2.3h-.7c-.3 0-.5-.2-.5-.5s.2-.5.5-.5h.3V5.3c0-.3.2-.5.5-.5h.9V.5c0-.3.2-.5.5-.5h4.2c.3 0 .5.2.5.5v4.2h.9c.3 0 .5.2.5.5v2.6h1.6c.1 0 .2 0 .3.1l4.7 2.6c1.2.8 2 2.1 2.1 3.5v3.5c0 .3-.3.5-.5.5-.3 0-.5-.2-.5-.5V14a3.3 3.3 0 0 0-1.6-2.6l-4.6-2.5h-1.4V16h.3c.3 0 .5.2.5.5s-.2.5-.5.5h-.7v2.3c0 .3-.2.5-.5.5l-2.1.1zm.6-1.1h1.1V17h-1.1v1.8zm-4.2 0h1.1V17h-1.1v1.8zm-.4-2.8h6V5.8h-6V16zm1.4-11.2h3.2V1h-3.2v3.8z" fill="url(#a)"/>
</svg>
