<svg xmlns="http://www.w3.org/2000/svg" width="32" height="32">
  <linearGradient id="a">
    <stop offset="0" stop-color="#00407f"/>
    <stop offset="1" stop-color="#21d2dc"/>
  </linearGradient>
  <path d="M3.6 30c-2 0-3.6-1.6-3.6-3.6v-23C0 2.6.7 2 1.4 2h25.5c.8 0 1.4.6 1.4 1.4v2.2h2.2c.8 0 1.5.6 1.5 1.4v19.4c0 2-1.6 3.6-3.6 3.6H3.6zm-2.2-3.6c0 1.2 1 2.2 2.2 2.2h24.8c1.2 0 2.2-1 2.2-2.2V7h-2.2v18.3c0 .2.2.4.4.4.4 0 .7.3.7.7 0 .4-.3.7-.7.7-1 0-1.8-.8-1.8-1.8V3.4H1.4v23zm14.6-.7c-.4 0-.7-.3-.7-.7 0-.4.3-.7.7-.7h7.3c.4 0 .7.3.7.7 0 .4-.3.7-.7.7H16zm-10.9 0c-.4 0-.7-.3-.7-.7 0-.4.3-.7.7-.7h7.3c.4 0 .7.3.7.7 0 .4-.3.7-.7.7H5.1zM16 22.1c-.4 0-.7-.3-.7-.7 0-.4.3-.7.7-.7h7.3c.4 0 .7.3.7.7 0 .4-.3.7-.7.7H16zm-10.9 0c-.4 0-.7-.3-.7-.7 0-.4.3-.7.7-.7h7.3c.4 0 .7.3.7.7 0 .4-.3.7-.7.7H5.1zm0-3.5c-.4 0-.7-.3-.7-.7v-7.3c0-.4.3-.7.7-.7h7.3c.4 0 .7.3.7.7v7.3c0 .4-.3.7-.7.7H5.1zm.7-1.5h5.9v-5.8H5.8v5.8zM16 18.5c-.4 0-.7-.3-.7-.7 0-.4.3-.7.7-.7h7.3c.4 0 .7.3.7.7 0 .4-.3.7-.7.7H16zm0-3.6c-.4 0-.7-.3-.7-.7 0-.4.3-.7.7-.7h7.3c.4 0 .7.3.7.7 0 .4-.3.7-.7.7H16zm0-3.6c-.4 0-.7-.3-.7-.7 0-.4.3-.7.7-.7h7.3c.4 0 .7.3.7.7 0 .4-.3.7-.7.7H16zM5.1 7.7c-.4 0-.8-.3-.8-.7 0-.4.3-.7.7-.7h18.2c.5 0 .8.3.8.7 0 .4-.3.7-.7.7H5.1z" fill="url(#a)"/>
</svg>
