<svg xmlns="http://www.w3.org/2000/svg" width="32" height="32">
  <linearGradient id="a">
    <stop offset="0" stop-color="#00407f"/>
    <stop offset="1" stop-color="#21d2dc"/>
  </linearGradient>
  <path d="M14.5 28.8l-.6-.7H.5c-.3 0-.5-.2-.5-.5v-22c0-.3.2-.5.5-.6.3 0 .5.2.5.5V27h13c.3 0 .5.1.7.3l.4.5h1.7l.4-.5c.2-.2.4-.3.7-.3h13V5.6c0-.3.2-.5.5-.5.3-.1.6.1.6.4v22.1c0 .3-.2.5-.5.5H18.1l-.6.7c-.1.1-.2.2-.4.2h-2.2c-.1 0-.3-.1-.4-.2zm1.1-1.9c-.3-.5-.9-.8-1.5-.8H2.6c-.3 0-.5-.2-.5-.5V3.5c-.1-.3.2-.5.5-.5H14c.7 0 1.4.3 2 .8.5-.5 1.2-.8 2-.8h11.5c.2 0 .5.2.5.5v22.1c0 .3-.2.5-.5.5H18c-.6 0-1.2.3-1.5.8-.2.2-.5.3-.7.1-.1 0-.2 0-.2-.1zM3.1 25.1h11c.7 0 1.4.3 2 .8.5-.5 1.2-.8 2-.8h11V4H18c-.6 0-1.2.3-1.5.8-.2.3-.5.4-.8.2-.1 0-.1-.1-.1-.1-.4-.6-.9-.9-1.6-.9H3v21.1zM15.5 24V10.7c0-.3.2-.5.5-.5s.5.2.5.5V24c0 .3-.2.5-.5.5s-.5-.2-.5-.5zm2.5-.7c-.3 0-.5-.3-.5-.5 0-.3.2-.5.5-.5h4c.3 0 .5.3.5.5 0 .3-.2.5-.5.5h-4zm-12.7 0c-.3 0-.5-.2-.5-.5v-4.2c0-.3.2-.5.5-.5h8c.3 0 .5.2.5.5v4.2c0 .3-.2.5-.5.5h-8zm.5-1h7v-3.2h-7v3.2zm12.2-1c-.3 0-.5-.3-.5-.5 0-.3.2-.5.5-.5h8c.3 0 .5.3.5.5 0 .3-.2.5-.5.5h-8zm0-2.1c-.3 0-.5-.3-.5-.5 0-.3.2-.5.5-.5h8c.3 0 .5.3.5.5 0 .3-.2.5-.5.5h-8zm0-2c-.3 0-.5-.3-.5-.5 0-.3.2-.5.5-.5h8c.3 0 .5.3.5.5 0 .3-.2.5-.5.5h-8zm-12.7-.1c-.3 0-.5-.3-.5-.5 0-.3.2-.6.5-.6h4c.3 0 .5.3.5.5 0 .3-.2.5-.5.5h-4zm12.7-2c-.3 0-.5-.3-.5-.5 0-.3.2-.5.5-.5h8c.3 0 .5.3.5.5 0 .3-.2.5-.5.5h-8zM5.3 15c-.3 0-.5-.3-.5-.5 0-.3.2-.5.5-.5h8c.3 0 .5.3.5.5 0 .3-.2.5-.5.5h-8zm12.2-2.5c0-.3.2-.5.5-.5.4 0 .8-.1 1.1-.2V7c-.4-.2-.8-.2-1.1-.2-.3 0-.5-.3-.5-.5 0-.3.2-.5.5-.5.7 0 1.3.2 1.9.5h.1c.8.6 1.5 1.3 2 2.2.5-.9 1.2-1.6 2-2.2h.1c.6-.3 1.2-.5 1.9-.5.3 0 .5.3.5.5 0 .3-.2.5-.5.5-.4 0-.8.1-1.1.2v4.8c.4.2.8.2 1.1.2.3 0 .5.3.5.5 0 .3-.2.5-.5.5-.7 0-1.3-.2-1.9-.5H24c-.8-.6-1.5-1.3-2-2.2-.5.9-1.2 1.6-2 2.2h-.1c-.6.3-1.2.5-1.9.5-.2.1-.5-.2-.5-.5zm5.1-3.1c.4.6.8 1.1 1.2 1.6V7.8c-.4.5-.8 1-1.2 1.6zM20.2 11c.5-.5.9-1.1 1.2-1.6-.4-.6-.8-1.1-1.2-1.6V11zM5.3 12.9c-.3 0-.5-.3-.5-.5 0-.3.2-.5.5-.5h8c.3 0 .5.3.5.5 0 .3-.2.5-.5.5h-8zm0-2c-.3 0-.5-.3-.5-.5 0-.3.2-.5.5-.5h8c.3 0 .5.3.5.5 0 .3-.2.5-.5.5h-8zm10.2-2.2V6.6c0-.3.2-.5.5-.5s.5.2.5.5v2.1c0 .3-.2.5-.5.5s-.5-.2-.5-.5zm-10.2.1c-.3 0-.5-.2-.5-.5s.2-.5.5-.5h8c.3 0 .5.3.5.5 0 .3-.2.5-.5.5h-8zm0-2c-.3 0-.5-.3-.5-.6 0-.2.2-.4.5-.5h8c.3 0 .5.3.5.5 0 .3-.2.5-.5.5h-8z" fill="url(#a)"/>
</svg>
