<svg xmlns="http://www.w3.org/2000/svg" width="32" height="32">
  <linearGradient id="a">
    <stop offset="0" stop-color="#00407f"/>
    <stop offset="1" stop-color="#21d2dc"/>
  </linearGradient>
  <path fill="url(#a)" d="M21.15 26.57a5.44 5.44 0 0 1 3.62-5.11v-5.39a.51.51 0 0 1 .51-.51h2.59a.51.51 0 0 1 .5.51v5.39a5.42 5.42 0 1 1-7.22 5.11zm5.43 4.4a4.41 4.41 0 0 0 4.37-3.89h-1.5a.51.51 0 1 1 0-1.02h1.5a4.41 4.41 0 0 0-3.22-3.74.51.51 0 0 1-.37-.5v-5.24h-1.57v5.25a.51.51 0 0 1-.37.5 4.41 4.41 0 0 0-3.22 3.73h5.2a.51.51 0 1 1 0 1.03h-5.2a4.41 4.41 0 0 0 4.37 3.89zM0 31.5a14.2 14.2 0 0 1 4.57-10.44.5.5 0 0 1 .1-.1l.02-.02a14.26 14.26 0 0 1 4.1-2.59.5.5 0 0 1 .11-.04 14.22 14.22 0 0 1 14.18 2.06.51.51 0 0 1-.63.8 13.23 13.23 0 0 0-2.86-1.74l-4.85 6.63v3.88l3.73-5.1v-1.04a.51.51 0 0 1 .5-.51h1.23a.51.51 0 0 1 0 1.02h-.71v.7a.51.51 0 0 1-.1.3l-4.75 6.5h-.01l-.02.03-.02.02-.03.02v.01a.52.52 0 0 1-.05.04l-.05.02h-.01l-.04.02h-.02l-.04.02h-.07a.48.48 0 0 1-.11 0H14.1l-.04-.01h-.02l-.04-.02v-.01l-.05-.02a.52.52 0 0 1-.05-.04h-.01l-.03-.04h-.01l-.03-.04-4.76-6.5a.51.51 0 0 1-.1-.3v-.7h-2.2a.51.51 0 0 1-.42-.2l-1.43-1.96a13.16 13.16 0 0 0-3.89 9.35.51.51 0 0 1-1.02 0zm5.67-10.05L7 23.28h2.47a.51.51 0 0 1 .5.51v1.04l3.74 5.1v-3.88l-4.85-6.63a13.24 13.24 0 0 0-3.2 2.02zm4.18-2.4l4.38 5.98 4.38-6a13.28 13.28 0 0 0-8.76.01zM6.45 7.77a7.78 7.78 0 1 1 7.78 7.78 7.79 7.79 0 0 1-7.78-7.78zm1.02 0a6.76 6.76 0 1 0 6.76-6.76 6.77 6.77 0 0 0-6.76 6.76zm7.78 2.04a.51.51 0 0 1-.51-.51.51.51 0 1 0-1.02 0 .51.51 0 0 1-.51.5h-2.84a1.6 1.6 0 0 1-1.6-1.6V6.65a1.6 1.6 0 0 1 1.6-1.6h7.71a1.6 1.6 0 0 1 1.6 1.6v1.58a1.6 1.6 0 0 1-1.6 1.6zm.42-1.02h2.41a.58.58 0 0 0 .58-.58V6.64a.58.58 0 0 0-.58-.58h-7.71a.58.58 0 0 0-.58.58v1.58a.58.58 0 0 0 .58.58h2.41a1.53 1.53 0 0 1 2.9 0z"/>
</svg>
