<svg xmlns="http://www.w3.org/2000/svg" xmlns:xlink="http://www.w3.org/1999/xlink" width="510" height="150">
  <defs>
    <linearGradient id="d" x1="148.16" y1="63.11" x2="88.51" y2="50.18" gradientUnits="userSpaceOnUse">
      <stop offset=".1" stop-color="#c02026"/>
      <stop offset=".74" stop-color="#f47b21"/>
      <stop offset="1" stop-color="#f36d21"/>
    </linearGradient>
    <linearGradient id="a" x1="140.73" y1="33.61" x2="108.05" y2="62.95" gradientUnits="userSpaceOnUse">
      <stop offset="0" stop-color="#0c040b" stop-opacity=".95"/>
      <stop offset="1" stop-color="#0c040b" stop-opacity="0"/>
    </linearGradient>
    <linearGradient id="b" x1="158.65" y1="74.73" x2="119.97" y2="74.73" gradientUnits="userSpaceOnUse">
      <stop offset="0" stop-color="#8f5021"/>
      <stop offset=".03" stop-color="#935520"/>
      <stop offset=".49" stop-color="#ca9817"/>
      <stop offset=".83" stop-color="#ecc111"/>
      <stop offset="1" stop-color="#f9d10f"/>
    </linearGradient>
    <linearGradient id="e" x1="88.4" y1="114.27" x2="116.95" y2="87.62" gradientUnits="userSpaceOnUse">
      <stop offset="0" stop-color="#988b33"/>
      <stop offset="1" stop-color="#ffef00"/>
    </linearGradient>
    <linearGradient id="f" x1="107.57" y1="140.7" x2="92.03" y2="111.87" xlink:href="#a"/>
    <linearGradient id="g" x1="-1.05" y1="92.96" x2="32.44" y2="56.63" gradientUnits="userSpaceOnUse">
      <stop offset="0" stop-color="#00464a"/>
      <stop offset=".46" stop-color="#007c78"/>
      <stop offset="1" stop-color="#009285"/>
    </linearGradient>
    <linearGradient id="h" x1="21.05" y1="83.83" x2="57.32" y2="117.79" gradientUnits="userSpaceOnUse">
      <stop offset="0" stop-color="#315b2c"/>
      <stop offset=".17" stop-color="#4a7734"/>
      <stop offset=".38" stop-color="#64953c"/>
      <stop offset=".6" stop-color="#77aa41"/>
      <stop offset=".8" stop-color="#82b745"/>
      <stop offset="1" stop-color="#86bb46"/>
    </linearGradient>
    <linearGradient id="i" x1="15.83" y1="111.28" x2="33.78" y2="84.46" xlink:href="#a"/>
    <linearGradient id="j" x1="91.69" y1="10.59" x2="24.75" y2="62.99" gradientUnits="userSpaceOnUse">
      <stop offset="0" stop-color="#005175"/>
      <stop offset=".39" stop-color="#227497"/>
      <stop offset=".77" stop-color="#3d91b1"/>
      <stop offset="1" stop-color="#479bbb"/>
    </linearGradient>
    <linearGradient id="c" x1="87.56" y1="134.82" x2="54.82" y2="104.7" gradientUnits="userSpaceOnUse">
      <stop offset="0" stop-color="#446b33"/>
      <stop offset=".13" stop-color="#4e7736"/>
      <stop offset=".47" stop-color="#65923c"/>
      <stop offset=".77" stop-color="#73a240"/>
      <stop offset="1" stop-color="#78a841"/>
    </linearGradient>
    <linearGradient id="k" x1="22.89" y1="120.62" x2="123.41" y2="50.76" gradientUnits="userSpaceOnUse">
      <stop offset="0" stop-color="#8f5021"/>
      <stop offset=".47" stop-color="#cb9216"/>
      <stop offset=".82" stop-color="#f1bb0f"/>
      <stop offset="1" stop-color="#ffcb0c"/>
    </linearGradient>
    <linearGradient id="l" x1="20.64" y1="135.99" x2="77.52" y2="88.19" gradientUnits="userSpaceOnUse">
      <stop offset="0" stop-color="#467d3b"/>
      <stop offset=".11" stop-color="#50873d"/>
      <stop offset=".47" stop-color="#6ea342"/>
      <stop offset=".78" stop-color="#80b545"/>
      <stop offset="1" stop-color="#86bb46"/>
    </linearGradient>
    <linearGradient id="m" x1="9.46" y1="107.83" x2="86.26" y2="27.47" gradientUnits="userSpaceOnUse">
      <stop offset="0" stop-color="#00464a"/>
      <stop offset=".38" stop-color="#007c78"/>
      <stop offset="1" stop-color="#009285"/>
    </linearGradient>
    <linearGradient id="n" x1="13.21" y1="111.94" x2="90.7" y2="30.85" gradientUnits="userSpaceOnUse">
      <stop offset="0" stop-color="#003d60"/>
      <stop offset=".1" stop-color="#044366"/>
      <stop offset=".23" stop-color="#115376"/>
      <stop offset=".38" stop-color="#266f90"/>
      <stop offset=".54" stop-color="#4294b5"/>
      <stop offset=".57" stop-color="#479bbb"/>
      <stop offset="1" stop-color="#6ac4de"/>
    </linearGradient>
    <linearGradient id="o" x1="76.21" y1="75.59" x2="98.17" y2="50.3" xlink:href="#b"/>
    <linearGradient id="p" x1="37.96" y1="97.92" x2="111.75" y2="97.92" xlink:href="#c"/>
    <linearGradient id="q" x1="42.35" y1="77.34" x2="15.87" y2="48.78" gradientUnits="userSpaceOnUse">
      <stop offset="0" stop-color="#00464a"/>
      <stop offset=".38" stop-color="#007c78"/>
      <stop offset=".63" stop-color="#22938c"/>
      <stop offset=".86" stop-color="#3aa399"/>
      <stop offset="1" stop-color="#42a99e"/>
    </linearGradient>
  </defs>
  <!--Icon-->
  <g>
    <path d="M104.86 74.93l1.8-1.5s26.84-23.39 19.66-30.95a1.33 1.33 0 0 1-.14-.14 142.21 142.21 0 0 0-4.8-4.4 1.05 1.05 0 0 1-.22-.22c-.36-.26-2.89-2.41-3.37-2.41a1.95 1.95 0 0 0-.76.16l-.77.6-23.34 17.35s-12.21 9.98-10.5 12.76a2.42 2.42 0 0 0 1.07.78c3.8 1.37 9.4-3.01 21.42 8" fill="url(#d)"/>
    <path d="M105.9 75.9l1.8-1.5s26.83-23.4 19.65-30.96l-.13-.14c-1.34-1.28-2.7-2.56-4.14-3.83l-.66-.56s4.9 3.51 1.6 8.54c-6.61 10.03-27.5 19.93-27.5 19.93s7.44 6.7 9.38 8.51z" style="mix-blend-mode:multiply" fill="url(#a)"/>
    <path d="M136.08 53.6a6.21 6.21 0 0 0-1.12-1.58l-.06-.06a72.31 72.31 0 0 0-5.93-6.87c-.84-.87-2.29-2.54-3.2-3.42 7.17 7.57-19.1 31.76-19.1 31.76l-1.81 1.5c1.76 1.65 2.63 2.5 2.63 2.5s26.14 23.53 18.73 30.36c1.54-1.47 3-2.93 4.34-4.39a67.35 67.35 0 0 0 4.59-5.49l.8-1.09a6.67 6.67 0 0 0 .94-3.36V56.7a6.54 6.54 0 0 0-.81-3.1z" fill="url(#b)"/>
    <path d="M107.49 77.42s-.87-.84-2.63-2.49l-6.9 5.58A2032.47 2032.47 0 0 1 76.7 97.33a235.77 235.77 0 0 1-5.67 4.31c19.5 14.03 30.55 19.08 30.55 19.08a9.83 9.83 0 0 0 10.55-1 .33.33 0 0 1 .1-.08 165.44 165.44 0 0 0 13.95-11.81.06.06 0 0 0 .04-.04c7.4-6.83-18.73-30.37-18.73-30.37z" fill="url(#e)"/>
    <path d="M110.99 120.46c-5.28 4.05-8.66-.2-8.66-.2s-11.05-5.05-30.53-19.08c1.8-1.35 9.53-7.35 9.53-7.35s.96-.96 1.1-.69c16.21 28.08 26.83 27.93 27.9 27.6 1.2-.35.68-.31.66-.28z" style="mix-blend-mode:multiply" fill="url(#f)"/>
    <path d="M36.42 74.4l-1-.89s-27.28-24.17-19.89-31c-.92.85-1.79 1.74-2.64 2.62A67.6 67.6 0 0 0 7 51.96l-.06.06a6.2 6.2 0 0 0-1.11 1.58A6.45 6.45 0 0 0 5 56.7v36.76a6.63 6.63 0 0 0 .94 3.36l.81 1.1a68.85 68.85 0 0 0 5.98 6.97c.9.92 1.87 1.85 2.84 2.78-5.68-5.82 7-20.37 20.85-33.27z" fill="url(#g)"/>
    <path d="M65.34 97.49L61 94.2a508 508 0 0 1-20.1-15.93c-1.6-1.34-2.83-2.4-3.7-3.18l-.78-.7c-13.84 12.9-26.53 27.45-20.85 33.27a.53.53 0 0 1 .1.1 166.51 166.51 0 0 0 13.69 11.63l.1.08c5.9 4.61 11.02 1.1 11.02 1.1s11.34-4.64 30.55-18.94c-1.83-1.31-3.7-2.67-5.7-4.15z" fill="url(#h)"/>
    <path d="M43.8 80.83c.39-.23-1.24-1.9-1.33-2.15-.34-.92-3.37-1.85-4.06-2.46l-.79-.7C24.61 87.64 11.3 101.6 15.3 107.38a9.09 9.09 0 0 0 1.48 1.4l.1.1S8.9 102 43.8 80.83z" style="mix-blend-mode:multiply" fill="url(#i)"/>
    <path d="M101.15 22.4c-.21-.17-.44-.32-.65-.47A390.99 390.99 0 0 0 78.14 7.6a16.19 16.19 0 0 0-14.4 0l-2.4 1.44c-10.8 6.55-31.65 19.9-45.63 33.3-.05.06-.11.12-.18.17-8.04 7.35 19.9 31.01 19.9 31.01l.99.89C49.75 62 64.14 51.12 64.14 51.12v.02L66 49.66l.05-.02a449.49 449.49 0 0 1 23.78-17.36c7.49-5.06 16.43-4.42 16.43-4.42a1.96 1.96 0 0 0 .45-1.2c0-.55-5.21-3.91-5.56-4.27z" fill="url(#j)"/>
    <path d="M101.77 120.7s-11.08-5.03-30.62-19.06c-19.27 14.3-30.65 18.92-30.65 18.92s-5.13 3.5-11.04-1.1a352.29 352.29 0 0 0 31.27 21l4.04 2.4a16.62 16.62 0 0 0 12.57 0l4.05-2.4a365.1 365.1 0 0 0 30.96-20.92 10.09 10.09 0 0 1-10.58 1.17z" fill="url(#c)"/>
    <path d="M121.15 37.75s3.26 2.47 4.36 5.41a7.43 7.43 0 0 1 .02 4.9c-1.03 3.18-6.76 13.19-27.32 29.78A725.78 725.78 0 0 1 69 100.17l2.1 1.52s21.04-16.24 28.64-22.43c7.59-6.18 13.13-10.88 19.3-18.13 6.12-7.2 8.66-11.65 8.52-15.9 0 0 .5-2.75-6.4-7.48z" fill="url(#k)"/>
    <path d="M69 100.17s-17.75 14.13-29.67 19.6c-3.87 1.75-7.42 1.61-9.23.17 0 0 1.94 2.42 6.87 1.85 6.9-.8 27.26-14.88 34.13-20.1z" fill="url(#l)"/>
    <path d="M23.59 87.26c-5.84 6.51-9.07 12.41-9.39 15.79-.3 3.38 1.23 4.43 1.23 4.43-1.71-3.63 2.29-9.1 2.29-9.1 4.35-6.85 12.1-14.98 20.24-22.61l-1.55-1.38c-6.04 5.58-9.88 9.6-12.82 12.87z" fill="url(#m)"/>
    <path d="M94.35 31.4c-5.44 3.07-20.98 14.57-28.03 20.2-4.15 3.34-16.63 13.22-28.36 24.17l-1.55-1.38c4.33-4.08 9.4-8.58 15.12-13.2 8.37-6.8 28.79-23.7 41.66-31.26 3.35-1.95 6.85-3.27 13.52-3.27a1.4 1.4 0 0 1-.37 1.09c-.49.6-6.55.57-12 3.65z" fill="url(#n)"/>
    <path d="M84.56 67.23s-2.84-1.6-.17-5.09c2.66-3.49 15.7-12.2 31.32-25.6 0 0-11.38 7.94-20.99 15.34-4.33 3.35-8.33 6.25-10.91 8.6a6.5 6.5 0 0 0-2.24 4.33 2.3 2.3 0 0 0 1.1 2.08 4.16 4.16 0 0 0 1.9.34z" fill="url(#o)"/>
    <path d="M37.96 75.77a384.55 384.55 0 0 0 59.84 43.1s4.73 2.8 7.75 2.92c3 .1 4.26-.34 6.2-1.81 0 0-3.42 2.66-9.15.12-5.52-2.46-28.2-18.9-39.97-27.6a428.86 428.86 0 0 1-22.81-18.45z" fill="url(#p)"/>
    <path d="M36.34 74.45S7.64 50.6 15.18 42.85c0 0-6.22 6.63 22.99 29.9z" fill="url(#q)"/>
  </g>
  <!--Type-->
  <path d="M171.58 75.16v-.2c0-18.82 14.66-34.25 34.7-34.25 11.91 0 19.1 3.23 26 9.09l-9.17 11.06c-5.1-4.25-9.63-6.7-17.3-6.7-10.6 0-19.01 9.36-19.01 20.6v.2c0 12.1 8.33 21 20.05 21a23.14 23.14 0 0 0 13.7-3.97v-9.46h-14.64V69.94h28.75V98.7a42.94 42.94 0 0 1-28.28 10.5c-20.61 0-34.8-14.47-34.8-34.04zm74.7-33.31h49.94V54.8h-35.46v13.43h31.2V81.2h-31.2v13.91h35.93v12.96h-50.4zm61 0h13.43l31.01 40.78V41.85h14.37v66.22H353.7l-32.05-42.1v42.1h-14.37zm69.4 33.3v-.19c0-18.82 14.86-34.25 35.28-34.25s35.08 15.24 35.08 34.05v.2c0 18.84-14.85 34.24-35.27 34.24S376.7 94 376.7 75.16zm55.14 0v-.19c0-11.34-8.32-20.8-20.05-20.8s-19.85 9.25-19.85 20.6v.2c0 11.35 8.31 20.82 20.04 20.82 11.73 0 19.86-9.28 19.86-20.62zm20.8 23.28l8.6-10.32c5.97 4.93 12.2 8.04 19.77 8.04 5.96 0 9.55-2.35 9.55-6.24v-.19c0-3.7-2.27-5.58-13.32-8.4-13.34-3.43-21.94-7.11-21.94-20.27v-.19c0-12 9.64-19.96 23.14-19.96a38.36 38.36 0 0 1 24.6 8.42l-7.56 10.98c-5.86-4.06-11.63-6.53-17.2-6.53-5.6 0-8.53 2.55-8.53 5.76v.2c0 4.35 2.84 5.77 14.28 8.7C497.44 71.93 505 76.76 505 88.3v.2c0 13.14-10.01 20.52-24.3 20.52a42.11 42.11 0 0 1-28.08-10.6z" fill="#fff"/>
</svg>
