<svg xmlns="http://www.w3.org/2000/svg" width="40" height="40">
  <path d="M15.36 30.16a14.5 14.5 0 0 0 14.59-14.59c0-.22 0-.44-.01-.66a10.447 10.447 0 0 0 2.56-2.66 10.392 10.392 0 0 1-2.95.81 5.159 5.159 0 0 0 2.26-2.84 10.2 10.2 0 0 1-3.26 1.24 5.129 5.129 0 0 0-8.87 3.51 5.668 5.668 0 0 0 .13 1.17 14.561 14.561 0 0 1-10.57-5.36 5.148 5.148 0 0 0 1.59 6.85 5.187 5.187 0 0 1-2.32-.64v.07a5.139 5.139 0 0 0 4.11 5.03 5.158 5.158 0 0 1-2.31.09 5.128 5.128 0 0 0 4.79 3.56 10.285 10.285 0 0 1-6.37 2.2 9.867 9.867 0 0 1-1.22-.07 14.586 14.586 0 0 0 7.85 2.29" fill="rgba(255,255,255,0.7)"/>
</svg>
