<svg viewBox="0 0 80 80" fill="none" xmlns="http://www.w3.org/2000/svg">
  <path d="m60.57 39.959 1.092-.869s16.28-13.542 11.925-17.919a.804.804 0 0 1-.085-.08 84.89 84.89 0 0 0-2.911-2.548.625.625 0 0 1-.133-.127c-.219-.15-1.754-1.396-2.045-1.396a1.23 1.23 0 0 0-.46.093l-.468.347-14.157 10.045s-7.406 5.778-6.369 7.388c.168.205.393.361.65.451 2.304.794 5.7-1.742 12.992 4.632" fill="url(#a)"/>
  <path style="mix-blend-mode:multiply" d="m61.202 40.523 1.092-.869S78.568 26.107 74.213 21.73l-.079-.081a84.283 84.283 0 0 0-2.511-2.218l-.4-.324s2.972 2.032.97 4.944c-4.01 5.807-16.68 11.539-16.68 11.539s4.513 3.879 5.69 4.927v.006Z" fill="url(#b)"/>
  <path d="M79.51 27.611a3.601 3.601 0 0 0-.68-.915l-.037-.035a42.508 42.508 0 0 0-3.597-3.977c-.509-.504-1.389-1.47-1.94-1.98 4.349 4.383-11.586 18.388-11.586 18.388l-1.098.868c1.068.955 1.595 1.447 1.595 1.447S78.023 55.03 73.528 58.986a55.732 55.732 0 0 0 2.633-2.542 39.484 39.484 0 0 0 2.784-3.178l.485-.632a3.73 3.73 0 0 0 .57-1.945V29.406a3.652 3.652 0 0 0-.49-1.795Z" fill="url(#c)"/>
  <path d="M62.168 41.4s-.528-.486-1.596-1.442l-4.185 3.231a1226.79 1226.79 0 0 1-12.895 9.738c-1.133.848-2.28 1.68-3.44 2.495C51.88 63.545 58.584 66.47 58.584 66.47a6.206 6.206 0 0 0 3.288.604 6.125 6.125 0 0 0 3.111-1.183.199.199 0 0 1 .06-.046 99.343 99.343 0 0 0 8.462-6.838.035.035 0 0 0 .024-.023c4.49-3.954-11.36-17.583-11.36-17.583Z" fill="url(#d)"/>
  <path style="mix-blend-mode:multiply" d="M64.287 66.319c-3.203 2.344-5.253-.116-5.253-.116s-6.702-2.924-18.518-11.047c1.092-.781 5.78-4.255 5.78-4.255s.583-.556.668-.4c9.832 16.258 16.274 16.17 16.923 15.98.728-.203.412-.18.4-.162Z" fill="url(#e)"/>
  <path d="m19.058 39.651-.606-.515S1.905 25.143 6.387 21.188a38.774 38.774 0 0 0-1.601 1.517 39.715 39.715 0 0 0-3.573 3.955l-.036.034c-.273.27-.5.578-.674.915A3.604 3.604 0 0 0 0 29.404v21.282c.005.686.202 1.357.57 1.946l.491.636a40.423 40.423 0 0 0 3.628 4.036 74.631 74.631 0 0 0 1.722 1.61c-3.445-3.37 4.246-11.794 12.647-19.263Z" fill="url(#f)"/>
  <path d="m36.602 53.022-2.632-1.905a306.37 306.37 0 0 1-12.192-9.222 91.18 91.18 0 0 1-2.244-1.842l-.474-.405C10.666 47.117 2.968 55.541 6.414 58.91a.317.317 0 0 1 .06.058 99.965 99.965 0 0 0 8.304 6.733l.06.047c3.58 2.669 6.685.636 6.685.636s6.878-2.686 18.53-10.965a268.776 268.776 0 0 1-3.457-2.403l.006.006Z" fill="url(#g)"/>
  <path style="mix-blend-mode:multiply" d="M23.538 43.374c.237-.134-.752-1.1-.807-1.245-.206-.533-2.044-1.071-2.462-1.424l-.48-.406C11.9 47.316 3.826 55.4 6.252 58.745c.267.301.568.573.898.81l.06.058s-4.84-3.983 16.33-16.24Z" fill="url(#h)"/>
  <path d="M58.322 9.546c-.128-.098-.267-.185-.395-.272A238.862 238.862 0 0 0 44.366.978 10.206 10.206 0 0 0 39.998 0c-1.516 0-3.01.335-4.368.978l-1.456.834c-6.55 3.792-19.197 11.52-27.677 19.279a.582.582 0 0 1-.11.098C1.512 25.445 18.46 39.143 18.46 39.143l.6.515c8.085-7.185 16.814-13.484 16.814-13.484v.012L37 25.329l.03-.012c4.692-3.5 9.503-6.851 14.425-10.05 4.543-2.93 9.965-2.56 9.965-2.56.17-.195.266-.44.273-.694 0-.319-3.16-2.264-3.372-2.472v.005Z" fill="url(#i)"/>
  <path d="M58.696 66.456s-6.721-2.912-18.573-11.035c-11.689 8.28-18.591 10.954-18.591 10.954s-3.112 2.026-6.697-.637a214.648 214.648 0 0 0 18.967 12.158l2.45 1.39c2.444.952 5.182.952 7.625 0l2.457-1.39a222.365 222.365 0 0 0 18.78-12.112 6.281 6.281 0 0 1-3.108 1.212 6.378 6.378 0 0 1-3.31-.534v-.006Z" fill="url(#j)"/>
  <path d="M70.453 18.432s1.977 1.43 2.644 3.132c.34.917.345 1.917.013 2.837-.625 1.84-4.1 7.636-16.572 17.241A438.694 438.694 0 0 1 38.821 54.57l1.273.88s12.762-9.402 17.372-12.986c4.604-3.578 7.964-6.299 11.707-10.496 3.712-4.169 5.253-6.745 5.168-9.206 0 0 .303-1.592-3.882-4.33h-.006Z" fill="url(#k)"/>
  <path d="M38.82 54.574s-10.766 8.18-17.996 11.347c-2.348 1.013-4.501.932-5.599.099 0 0 1.177 1.4 4.167 1.07 4.186-.462 16.535-8.614 20.702-11.636l-1.274-.88Z" fill="url(#l)"/>
  <path d="M11.28 47.1c-3.542 3.768-5.501 7.184-5.695 9.141-.182 1.957.746 2.565.746 2.565-1.037-2.102 1.389-5.269 1.389-5.269 2.638-3.965 7.34-8.672 12.277-13.09l-.94-.799c-3.664 3.23-5.993 5.558-7.777 7.451Z" fill="url(#m)"/>
  <path d="M54.197 14.756c-3.3 1.777-12.725 8.435-17.002 11.695-2.517 1.933-10.087 7.653-17.202 13.993l-.94-.799a158.195 158.195 0 0 1 9.171-7.642c5.077-3.937 17.463-13.721 25.27-18.098 2.032-1.13 4.155-1.894 8.2-1.894a.775.775 0 0 1-.224.631c-.297.348-3.973.33-7.279 2.114h.006Z" fill="url(#n)"/>
  <path d="M48.258 35.503s-1.723-.926-.103-2.947c1.613-2.02 9.523-7.063 18.997-14.821 0 0-6.903 4.597-12.732 8.881-2.626 1.94-5.052 3.619-6.617 4.98a3.71 3.71 0 0 0-1.359 2.506c-.013.24.043.478.16.69.118.212.293.39.507.514.363.151.758.219 1.153.197h-.006Z" fill="url(#o)"/>
  <path d="M19.991 40.446a233.298 233.298 0 0 0 36.297 24.953s2.87 1.62 4.701 1.69c1.82.058 2.584-.197 3.76-1.048 0 0-2.074 1.54-5.55.07-3.347-1.425-17.104-10.943-24.244-15.98A258.276 258.276 0 0 1 21.12 39.45l-1.129.996Z" fill="url(#p)"/>
  <path d="M19.014 39.681S1.606 25.873 6.179 21.386c0 0-3.773 3.839 13.945 17.311l-1.11.984Z" fill="url(#q)"/>
  <defs>
    <linearGradient id="a" x1="86.835" y1="33.115" x2="50.811" y2="24.934" gradientUnits="userSpaceOnUse">
      <stop offset=".1" stop-color="#C02026"/>
      <stop offset=".74" stop-color="#F47B21"/>
      <stop offset="1" stop-color="#F36D21"/>
    </linearGradient>
    <linearGradient id="b" x1="82.329" y1="16.039" x2="63.334" y2="33.905" gradientUnits="userSpaceOnUse">
      <stop stop-color="#0C040B" stop-opacity=".95"/>
      <stop offset="1" stop-color="#0C040B" stop-opacity="0"/>
    </linearGradient>
    <linearGradient id="c" x1="93.199" y1="39.844" x2="69.737" y2="39.844" gradientUnits="userSpaceOnUse">
      <stop stop-color="#8F5021"/>
      <stop offset=".03" stop-color="#935520"/>
      <stop offset=".49" stop-color="#CA9817"/>
      <stop offset=".83" stop-color="#ECC111"/>
      <stop offset="1" stop-color="#F9D10F"/>
    </linearGradient>
    <linearGradient id="d" x1="50.589" y1="62.735" x2="67.153" y2="46.535" gradientUnits="userSpaceOnUse">
      <stop stop-color="#988B33"/>
      <stop offset="1" stop-color="#FFEF00"/>
    </linearGradient>
    <linearGradient id="e" x1="2606.01" y1="2422.37" x2="2397.33" y2="1874.66" gradientUnits="userSpaceOnUse">
      <stop stop-color="#0C040B" stop-opacity=".95"/>
      <stop offset="1" stop-color="#0C040B" stop-opacity="0"/>
    </linearGradient>
    <linearGradient id="f" x1="-3.67" y1="50.397" x2="15.626" y2="28.467" gradientUnits="userSpaceOnUse">
      <stop stop-color="#00464A"/>
      <stop offset=".46" stop-color="#007C78"/>
      <stop offset="1" stop-color="#009285"/>
    </linearGradient>
    <linearGradient id="g" x1="9.737" y1="45.114" x2="30.778" y2="65.753" gradientUnits="userSpaceOnUse">
      <stop stop-color="#315B2C"/>
      <stop offset=".17" stop-color="#4A7734"/>
      <stop offset=".38" stop-color="#64953C"/>
      <stop offset=".6" stop-color="#77AA41"/>
      <stop offset=".8" stop-color="#82B745"/>
      <stop offset="1" stop-color="#86BB46"/>
    </linearGradient>
    <linearGradient id="h" x1="286.987" y1="2189.56" x2="643.831" y2="1699.22" gradientUnits="userSpaceOnUse">
      <stop stop-color="#0C040B" stop-opacity=".95"/>
      <stop offset="1" stop-color="#0C040B" stop-opacity="0"/>
    </linearGradient>
    <linearGradient id="i" x1="52.584" y1="2.709" x2="13.433" y2="34.817" gradientUnits="userSpaceOnUse">
      <stop stop-color="#005175"/>
      <stop offset=".39" stop-color="#227497"/>
      <stop offset=".77" stop-color="#3D91B1"/>
      <stop offset="1" stop-color="#479BBB"/>
    </linearGradient>
    <linearGradient id="j" x1="50.077" y1="74.631" x2="31.068" y2="56.31" gradientUnits="userSpaceOnUse">
      <stop stop-color="#446B33"/>
      <stop offset=".13" stop-color="#4E7736"/>
      <stop offset=".47" stop-color="#65923C"/>
      <stop offset=".77" stop-color="#73A240"/>
      <stop offset="1" stop-color="#78A841"/>
    </linearGradient>
    <linearGradient id="k" x1="10.852" y1="66.41" x2="69.945" y2="23.383" gradientUnits="userSpaceOnUse">
      <stop stop-color="#8F5021"/>
      <stop offset=".47" stop-color="#CB9216"/>
      <stop offset=".82" stop-color="#F1BB0F"/>
      <stop offset="1" stop-color="#FFCB0C"/>
    </linearGradient>
    <linearGradient id="l" x1="9.487" y1="75.312" x2="42.648" y2="46.116" gradientUnits="userSpaceOnUse">
      <stop stop-color="#467D3B"/>
      <stop offset=".11" stop-color="#50873D"/>
      <stop offset=".47" stop-color="#6EA342"/>
      <stop offset=".78" stop-color="#80B545"/>
      <stop offset="1" stop-color="#86BB46"/>
    </linearGradient>
    <linearGradient id="m" x1="2.71" y1="59.009" x2="47.032" y2="10.42" gradientUnits="userSpaceOnUse">
      <stop stop-color="#00464A"/>
      <stop offset=".38" stop-color="#007C78"/>
      <stop offset="1" stop-color="#009285"/>
    </linearGradient>
    <linearGradient id="n" x1="4.981" y1="61.385" x2="49.701" y2="12.355" gradientUnits="userSpaceOnUse">
      <stop stop-color="#003D60"/>
      <stop offset=".1" stop-color="#044366"/>
      <stop offset=".23" stop-color="#115376"/>
      <stop offset=".38" stop-color="#266F90"/>
      <stop offset=".54" stop-color="#4294B5"/>
      <stop offset=".57" stop-color="#479BBB"/>
      <stop offset="1" stop-color="#6AC4DE"/>
    </linearGradient>
    <linearGradient id="o" x1="1624.74" y1="1361.13" x2="2002.45" y2="854.238" gradientUnits="userSpaceOnUse">
      <stop stop-color="#8F5021"/>
      <stop offset=".03" stop-color="#935520"/>
      <stop offset=".49" stop-color="#CA9817"/>
      <stop offset=".83" stop-color="#ECC111"/>
      <stop offset="1" stop-color="#F9D10F"/>
    </linearGradient>
    <linearGradient id="p" x1="1719.02" y1="2746.67" x2="5021.73" y2="2746.67" gradientUnits="userSpaceOnUse">
      <stop stop-color="#446B33"/>
      <stop offset=".13" stop-color="#4E7736"/>
      <stop offset=".47" stop-color="#65923C"/>
      <stop offset=".77" stop-color="#73A240"/>
      <stop offset="1" stop-color="#78A841"/>
    </linearGradient>
    <linearGradient id="q" x1="22.659" y1="41.355" x2="7.399" y2="24.111" gradientUnits="userSpaceOnUse">
      <stop stop-color="#00464A"/>
      <stop offset=".38" stop-color="#007C78"/>
      <stop offset=".63" stop-color="#22938C"/>
      <stop offset=".86" stop-color="#3AA399"/>
      <stop offset="1" stop-color="#42A99E"/>
    </linearGradient>
  </defs>
</svg>
