<svg width="1680" height="131" viewBox="0 0 1680 131" fill="none" xmlns="http://www.w3.org/2000/svg">
<path d="M0 44C59 44 82.8059 1 140 1C197.194 1 232 44 280 44C339 44 362.806 1 420 1C477.194 1 512 44 560 44C619 44 642.806 1 700 1C757.194 1 792 44 840 44C899 44 922.806 1 980 1C1037.19 1 1072 44 1120 44C1179 44 1202.81 1 1260 1C1317.19 1 1352 44 1400 44C1459 44 1482.81 1 1540 1C1597.19 1 1632 44 1680 44M0 87C59 87 82.8059 44 140 44C197.194 44 232 87 280 87C339 87 362.806 44 420 44C477.194 44 512 87 560 87C619 87 642.806 44 700 44C757.194 44 792 87 840 87C899 87 922.806 44 980 44C1037.19 44 1072 87 1120 87C1179 87 1202.81 44 1260 44C1317.19 44 1352 87 1400 87C1459 87 1482.81 44 1540 44C1597.19 44 1632 87 1680 87M0 130C59 130 82.8059 87 140 87C197.194 87 232 130 280 130C339 130 362.806 87 420 87C477.194 87 512 130 560 130C619 130 642.806 87 700 87C757.194 87 792 130 840 130C899 130 922.806 87 980 87C1037.19 87 1072 130 1120 130C1179 130 1202.81 87 1260 87C1317.19 87 1352 130 1400 130C1459 130 1482.81 87 1540 87C1597.19 87 1632 130 1680 130" stroke="#80BF40" stroke-width="2"/>
</svg>
